<svg width="687" height="84" viewBox="0 0 687 84" fill="none" xmlns="http://www.w3.org/2000/svg">
<path d="M20 30L15.8033 25.8033M18 20.5C18 16.3579 14.6421 13 10.5 13C6.35786 13 3 16.3579 3 20.5C3 24.6421 6.35786 28 10.5 28C14.6421 28 18 24.6421 18 20.5Z" stroke="black" stroke-width="1.5" stroke-linecap="round" stroke-linejoin="round"/>
<path d="M46 16C46 14.8954 46.8954 14 48 14H56C57.1046 14 58 14.8954 58 16V31L52 25L46 31V16Z" stroke="black" stroke-width="1.5" stroke-linecap="round" stroke-linejoin="round"/>
<path d="M90 20V26M94 20V26M98 16V28C98 29.1046 97.1046 30 96 30H88C86.8954 30 86 29.1046 86 28V16M84 16H100M95 16V15C95 13.8954 94.1046 13 93 13H91C89.8954 13 89 13.8954 89 15V16" stroke="black" stroke-width="1.5" stroke-linecap="round" stroke-linejoin="round"/>
<path d="M124 15L130 15M130 15C130 16.1046 130.895 17 132 17C133.105 17 134 16.1046 134 15M130 15C130 13.8954 130.895 13 132 13C133.105 13 134 13.8954 134 15M134 15L140 15M124 22H136M136 22C136 23.1046 136.895 24 138 24C139.105 24 140 23.1046 140 22C140 20.8954 139.105 20 138 20C136.895 20 136 20.8954 136 22ZM128 29H140M128 29C128 27.8954 127.105 27 126 27C124.895 27 124 27.8954 124 29C124 30.1046 124.895 31 126 31C127.105 31 128 30.1046 128 29Z" stroke="black" stroke-width="1.5" stroke-linecap="round"/>
<path d="M162 13H164.5L166.5 27H177M177 27C175.895 27 175 27.8954 175 29C175 30.1046 175.895 31 177 31C178.105 31 179 30.1046 179 29C179 27.8954 178.105 27 177 27ZM166.071 24H178L181 15H164.786M171 29C171 30.1046 170.105 31 169 31C167.895 31 167 30.1046 167 29C167 27.8954 167.895 27 169 27C170.105 27 171 27.8954 171 29Z" stroke="black" stroke-width="1.5" stroke-linecap="round" stroke-linejoin="round"/>
<path d="M211 13H213C213.552 13 214 13.4477 214 14V14.5688C214 14.9966 214.287 15.3682 214.682 15.5323C215.077 15.6964 215.538 15.6338 215.84 15.3312L216.243 14.9289C216.633 14.5384 217.266 14.5384 217.657 14.9289L219.071 16.3431C219.462 16.7336 219.462 17.3668 219.071 17.7573L218.669 18.1596C218.366 18.4622 218.304 18.9225 218.468 19.3177C218.632 19.7129 219.003 20 219.431 20L220 20C220.552 20 221 20.4477 221 21V23C221 23.5523 220.552 24 220 24H219.431C219.003 24 218.632 24.2871 218.468 24.6822C218.304 25.0775 218.366 25.5377 218.669 25.8403L219.071 26.2426C219.462 26.6331 219.462 27.2663 219.071 27.6568L217.657 29.071C217.266 29.4616 216.633 29.4616 216.243 29.071L215.84 28.6688C215.538 28.3661 215.077 28.3036 214.682 28.4677C214.287 28.6318 214 29.0034 214 29.4312V30C214 30.5523 213.552 31 213 31H211C210.448 31 210 30.5523 210 30V29.4313C210 29.0034 209.713 28.6317 209.318 28.4677C208.922 28.3036 208.462 28.3661 208.16 28.6688L207.757 29.071C207.367 29.4616 206.734 29.4616 206.343 29.071L204.929 27.6568C204.538 27.2663 204.538 26.6331 204.929 26.2426L205.331 25.8403C205.634 25.5377 205.696 25.0775 205.532 24.6822C205.368 24.2871 204.997 24 204.569 24H204C203.448 24 203 23.5523 203 23V21C203 20.4477 203.448 20 204 20L204.569 20C204.997 20 205.368 19.7129 205.532 19.3178C205.696 18.9225 205.634 18.4623 205.331 18.1597L204.929 17.7573C204.538 17.3668 204.538 16.7336 204.929 16.3431L206.343 14.9289C206.734 14.5384 207.367 14.5384 207.757 14.9289L208.16 15.3312C208.462 15.6339 208.922 15.6964 209.318 15.5323C209.713 15.3683 210 14.9966 210 14.5688V14C210 13.4477 210.448 13 211 13Z" stroke="black" stroke-width="1.5"/>
<path d="M214 22C214 23.1046 213.105 24 212 24C210.895 24 210 23.1046 210 22C210 20.8954 210.895 20 212 20C213.105 20 214 20.8954 214 22Z" stroke="black" stroke-width="1.5"/>
<path d="M256 25H248C245.791 25 244 26.7909 244 29V31H260V29C260 26.7909 258.209 25 256 25Z" stroke="black" stroke-width="1.5" stroke-linecap="round" stroke-linejoin="round"/>
<path d="M252 21C254.209 21 256 19.2091 256 17C256 14.7909 254.209 13 252 13C249.791 13 248 14.7909 248 17C248 19.2091 249.791 21 252 21Z" stroke="black" stroke-width="1.5" stroke-linecap="round" stroke-linejoin="round"/>
<path d="M292 17V27M287 22H297" stroke="black" stroke-width="1.5" stroke-linecap="round" stroke-linejoin="round"/>
<path d="M327 22L337 22" stroke="black" stroke-width="1.5" stroke-linecap="round" stroke-linejoin="round"/>
<path d="M381 20V18C381 16.8954 380.105 16 379 16H365C363.895 16 363 16.8954 363 18V20M381 20V26C381 27.1046 380.105 28 379 28H365C363.895 28 363 27.1046 363 26V20M381 20H363M366 25H370" stroke="black" stroke-width="1.5" stroke-linecap="round" stroke-linejoin="round"/>
<path d="M404.331 22.0474L412 30L419.669 22.0474C420.521 21.1633 421 19.9643 421 18.714C421 16.1105 418.965 14 416.454 14C415.249 14 414.093 14.4967 413.24 15.3807L412 16.6667L410.76 15.3807C409.907 14.4967 408.751 14 407.546 14C405.035 14 403 16.1106 403 18.714C403 19.9643 403.479 21.1633 404.331 22.0474Z" stroke="black" stroke-width="1.5" stroke-linecap="round" stroke-linejoin="round"/>
<path d="M444 27H460M444 22H460M444 17H460" stroke="black" stroke-width="1.5" stroke-linecap="round" stroke-linejoin="round"/>
<path d="M495 14H498C499.105 14 500 14.8954 500 16V28C500 29.1046 499.105 30 498 30H495M488 18L484 22M484 22L488 26M484 22L496 22" stroke="black" stroke-width="1.5" stroke-linecap="round" stroke-linejoin="round"/>
<path d="M537 24L532 19L527 24" stroke="black" stroke-width="1.5" stroke-linecap="round" stroke-linejoin="round"/>
<path d="M567 20L572 25L577 20" stroke="black" stroke-width="1.5" stroke-linecap="round" stroke-linejoin="round"/>
<path d="M604 22L620 22M604 22L610 16M604 22L610 28" stroke="black" stroke-width="1.5" stroke-linecap="round" stroke-linejoin="round"/>
<path d="M660 22L644 22M660 22L654 28M660 22L654 16" stroke="black" stroke-width="1.5" stroke-linecap="round" stroke-linejoin="round"/>
<path d="M13 55C13 54.4477 12.5523 54 12 54C11.4477 54 11 54.4477 11 55C11 55.5523 11.4477 56 12 56C12.5523 56 13 55.5523 13 55Z" stroke="black" stroke-width="1.5" stroke-linecap="round" stroke-linejoin="round"/>
<path d="M13 62C13 61.4477 12.5523 61 12 61C11.4477 61 11 61.4477 11 62C11 62.5523 11.4477 63 12 63C12.5523 63 13 62.5523 13 62Z" stroke="black" stroke-width="1.5" stroke-linecap="round" stroke-linejoin="round"/>
<path d="M13 69C13 68.4477 12.5523 68 12 68C11.4477 68 11 68.4477 11 69C11 69.5523 11.4477 70 12 70C12.5523 70 13 69.5523 13 69Z" stroke="black" stroke-width="1.5" stroke-linecap="round" stroke-linejoin="round"/>
</svg>
